<?xml version="1.0" encoding="UTF-8" standalone="no"?>
<!-- Created with Inkscape (http://www.inkscape.org/) -->

<svg
   xmlns:dc="http://purl.org/dc/elements/1.1/"
   xmlns:cc="http://creativecommons.org/ns#"
   xmlns:rdf="http://www.w3.org/1999/02/22-rdf-syntax-ns#"
   xmlns:svg="http://www.w3.org/2000/svg"
   xmlns="http://www.w3.org/2000/svg"
   xmlns:sodipodi="http://sodipodi.sourceforge.net/DTD/sodipodi-0.dtd"
   xmlns:inkscape="http://www.inkscape.org/namespaces/inkscape"
   version="1.1"
   width="413.92322"
   height="114.404"
   id="svg2"
   xml:space="preserve"
   inkscape:version="0.48.2 r9819"
   sodipodi:docname="logoGray.svg"><sodipodi:namedview
     pagecolor="#ffffff"
     bordercolor="#666666"
     borderopacity="1"
     objecttolerance="10"
     gridtolerance="10"
     guidetolerance="10"
     inkscape:pageopacity="0"
     inkscape:pageshadow="2"
     inkscape:window-width="1005"
     inkscape:window-height="591"
     id="namedview59"
     showgrid="false"
     inkscape:zoom="1.0678309"
     inkscape:cx="158.14111"
     inkscape:cy="43.958203"
     inkscape:window-x="0"
     inkscape:window-y="0"
     inkscape:window-maximized="0"
     inkscape:current-layer="svg2" /><metadata
     id="metadata8"><rdf:RDF><cc:Work
         rdf:about=""><dc:format>image/svg+xml</dc:format><dc:type
           rdf:resource="http://purl.org/dc/dcmitype/StillImage" /><dc:title /></cc:Work></rdf:RDF></metadata><defs
     id="defs6"><clipPath
       id="clipPath16"><path
         d="M 0,612 792,612 792,0 0,0 0,612 z"
         id="path18" /></clipPath></defs><g
     transform="matrix(1.25,0,0,-1.25,-272.18169,365.15555)"
     id="g10"><g
       transform="translate(-12.835786,29.338939)"
       clip-path="url(#clipPath16)"
       id="g14"><g
         transform="translate(308.54,215.7334)"
         id="g52"><path
           d="m 0,0 c -1.673,-1.925 -4.27,-3.182 -7.451,-3.182 -3.182,0 -5.861,1.257 -7.535,3.182 -2.26,2.51 -2.848,5.275 -2.848,16.745 0,11.471 0.588,14.233 2.848,16.742 1.674,1.929 4.353,3.186 7.535,3.186 3.181,0 5.778,-1.257 7.451,-3.186 C 2.26,30.978 2.928,28.216 2.928,16.745 2.928,5.275 2.26,2.51 0,0 m 8.622,40.522 c -4.185,4.188 -9.291,6.53 -16.073,6.53 -6.782,0 -11.973,-2.342 -16.158,-6.53 -6.029,-6.028 -5.864,-13.482 -5.864,-23.777 0,-10.301 -0.165,-17.752 5.864,-23.779 4.185,-4.186 9.376,-6.529 16.158,-6.529 6.782,0 11.888,2.343 16.073,6.529 6.029,6.027 5.944,13.478 5.944,23.779 0,10.295 0.085,17.749 -5.944,23.777"
           id="path54"
           style="fill:#ececec;fill-opacity:1;fill-rule:nonzero;stroke:none" /></g><g
         transform="translate(268.7627,232.8945)"
         id="g56"><path
           d="M 0,0 C -2.516,2.348 -5.947,3.854 -11.389,4.607 L -18.42,5.61 c -2.432,0.337 -4.357,1.257 -5.529,2.344 -1.253,1.175 -1.756,2.763 -1.756,4.273 0,4.099 3.013,7.535 9.21,7.535 3.333,0 7.085,-0.385 10.446,-2.682 l 0,0.003 c 0.628,-0.404 1.832,-1.288 3.002,-0.212 l 4.627,4.571 0.008,0.012 c 1.129,1.085 0.803,1.957 0.338,2.513 -4.848,4.17 -10.493,5.924 -18.086,5.924 -12.896,0 -20.766,-7.452 -20.766,-18.083 0,-5.026 1.426,-8.876 4.274,-11.724 2.677,-2.594 6.443,-4.184 11.55,-4.938 l 7.202,-1.003 c 2.761,-0.422 4.103,-1.006 5.275,-2.096 1.253,-1.172 1.844,-2.93 1.844,-5.024 0,-4.771 -3.688,-7.366 -10.551,-7.366 -4.418,0 -8.557,0.829 -11.968,3.077 l -0.012,-0.029 c -1.808,1.332 -3.073,1.082 -3.917,0.483 l -4.54,-4.543 c -0.573,-0.911 -0.77,-2.381 0.9,-3.618 l -0.029,-0.019 c 5.333,-4.276 11.544,-5.733 19.397,-5.733 12.476,0 22.103,6.53 22.103,18.086 C 4.602,-7.366 3.179,-3.013 0,0"
           id="path58"
           style="fill:#ececec;fill-opacity:1;fill-rule:nonzero;stroke:none" /></g><g
         transform="translate(475.3828,242.1836)"
         id="g60"><path
           d="m 0,0 c 0,0.934 -0.281,2.306 -2.16,2.472 l -7.309,0 C -11.348,2.306 -11.629,0.934 -11.629,0 l -0.004,-0.004 0,-38.044 c 0.155,-1.905 1.535,-2.19 2.475,-2.19 l 6.652,0 0,0.004 c 0.994,0 2.504,0.293 2.504,2.523 l 0.006,0 0,37.707 L 0,0 z"
           id="path62"
           style="fill:#ececec;fill-opacity:1;fill-rule:nonzero;stroke:none" /></g><g
         transform="translate(510.125,261.5547)"
         id="g64"><path
           d="m 0,0 -44.677,0 c -1.535,-0.137 -2.004,-1.076 -2.117,-1.931 l 0,-6.141 c 0.094,-1.894 1.342,-2.27 2.289,-2.31 l 26.608,0 0,-47.083 c 0.184,-1.833 1.542,-2.112 2.465,-2.112 l 0.01,-0.032 6.678,0 0,0.004 c 0.955,0 2.379,0.291 2.482,2.299 l 0,46.924 6.155,0 c 0.912,0.038 2.095,0.393 2.269,2.103 l 0,5.807 -0.006,0 C 2.156,-1.538 1.879,-0.166 0,0"
           id="path66"
           style="fill:#ececec;fill-opacity:1;fill-rule:nonzero;stroke:none" /></g><g
         transform="translate(368.3906,204.6475)"
         id="g68"><path
           d="m 0,0 0,6.313 c -0.087,0.952 -0.564,2.092 -2.504,2.092 l -22.293,0 0,46.86 c -0.023,0.986 -0.384,2.364 -2.501,2.37 l -6.642,0 c -1.938,-0.006 -2.409,-1.158 -2.496,-2.109 l 0,-55.183 c 0.082,-1.797 1.205,-2.243 2.128,-2.318 l 31.993,0 C -0.599,-1.905 -0.11,-0.896 0,0"
           id="path70"
           style="fill:#ececec;fill-opacity:1;fill-rule:nonzero;stroke:none" /></g><g
         transform="translate(435.4902,236.1602)"
         id="g72"><path
           d="m 0,0 -10.971,0 0,15.742 10.971,0 c 5.107,0 8.457,-3.265 8.457,-7.872 C 8.457,3.27 5.107,0 0,0 M 21.57,-31.652 9.211,-7.785 c 5.775,2.094 10.881,7.285 10.881,15.655 0,9.964 -7.199,18.252 -19.338,18.252 l -20.859,0 c -2.073,-0.006 -2.459,-1.323 -2.5,-2.306 l 0,-55.192 c 0.156,-1.62 1.218,-2.038 2.105,-2.111 l 7.406,0 c 0.926,0.075 2.039,0.514 2.123,2.3 l 0,21.474 8.373,0 11.229,-22.937 c 0.328,-0.424 0.838,-0.77 1.598,-0.837 l 9.636,0 c 1.838,0.067 2.164,0.735 1.705,1.835"
           id="path74"
           style="fill:#ececec;fill-opacity:1;fill-rule:nonzero;stroke:none" /></g><g
         transform="translate(526.4063,261.5547)"
         id="g76"><path
           d="m 0,0 -9.16,0 c -1.758,-0.043 -1.674,-0.93 -1.377,-1.681 l 17.062,-33.481 0,-21.92 c 0.016,-2.198 1.51,-2.495 2.502,-2.495 l 0.006,-0.032 6.543,0 0,0.004 c 0.992,0 2.502,0.293 2.502,2.523 l 0,21.92 17.096,33.551 c 0.273,0.739 0.301,1.57 -1.405,1.611 L 24.611,0 C 23.906,-0.107 23.219,-0.439 22.719,-1.39 L 12.383,-24.027 1.896,-1.398 C 1.396,-0.441 0.709,-0.107 0,0"
           id="path78"
           style="fill:#ececec;fill-opacity:1;fill-rule:nonzero;stroke:none" /></g><g
         transform="translate(368.4756,233.7119)"
         id="g80"><path
           d="m 0,0 c 0.058,10.124 0.689,12.759 2.838,15.146 1.676,1.925 4.355,3.181 7.537,3.181 3.182,0 5.777,-1.256 7.451,-3.181 C 19.977,12.759 20.687,10.124 20.75,0 L 0,0 z m 26.449,22.179 c -4.185,4.187 -9.291,6.531 -16.074,6.531 -6.781,0 -11.975,-2.344 -16.156,-6.531 -6.033,-6.027 -5.864,-13.478 -5.864,-23.776 0,-2.62 -0.011,-7.302 0.076,-9.576 l 0.005,0 0,-1.33 c 0.158,-1.619 1.216,-2.038 2.106,-2.111 l 7.404,0 c 0.925,0.076 2.039,0.521 2.126,2.304 l 0,3.58 20.637,0 0,-19.242 c 0.16,-1.619 1.219,-2.038 2.107,-2.107 l 7.406,0 c 0.925,0.072 2.039,0.515 2.123,2.301 l 0,3.832 c 0.052,6.162 0.051,20.191 0.051,22.349 0,10.298 0.083,17.749 -5.947,23.776"
           id="path82"
           style="fill:#ececec;fill-opacity:1;fill-rule:nonzero;stroke:none" /></g><g
         transform="translate(239.7871,171.5488)"
         id="g84"><path
           d="m 0,0 -9.074,0 0,12.948 8.814,0 -0.131,-2.08 -6.318,0 0,-3.302 5.824,0 0,-2.002 -5.824,0 0,-3.484 6.787,0 L 0,0 z"
           id="path86"
           style="fill:#ececec;fill-opacity:1;fill-rule:nonzero;stroke:none" /></g><g
         transform="translate(254.373,171.2891)"
         id="g88"><path
           d="m 0,0 -7.203,9.36 c -0.26,0.338 -0.494,0.78 -0.624,1.17 l -0.155,0 c 0.025,-0.338 0.051,-0.884 0.051,-1.118 l 0,-9.152 -2.132,0 0,12.948 2.575,0 6.603,-8.606 c 0.26,-0.338 0.469,-0.728 0.599,-1.197 l 0.155,0 C -0.156,3.77 -0.183,4.29 -0.183,4.628 l 0,8.58 2.132,0 0,-12.923 L 0,0 z"
           id="path90"
           style="fill:#ececec;fill-opacity:1;fill-rule:nonzero;stroke:none" /></g><g
         transform="translate(270.8311,171.5488)"
         id="g92"><path
           d="m 0,0 -9.074,0 0,12.948 8.813,0 -0.13,-2.08 -6.317,0 0,-3.302 5.824,0 0,-2.002 -5.824,0 0,-3.484 6.786,0 L 0,0 z"
           id="path94"
           style="fill:#ececec;fill-opacity:1;fill-rule:nonzero;stroke:none" /></g><g
         transform="translate(279.5918,182.7812)"
         id="g96"><path
           d="m 0,0 c -0.468,0 -1.56,-0.026 -1.949,-0.052 l 0,-4.316 1.949,0 c 1.56,0 2.627,0.935 2.627,2.262 C 2.627,-0.754 1.639,0 0,0 m 4.446,-11.389 -4.42,5.252 -1.975,0 0,-5.095 -2.288,0 0,12.948 1.299,0 c 0.651,0 2.184,0.104 3.329,0.104 2.782,0 4.601,-1.274 4.601,-3.589 0,-1.767 -1.014,-3.067 -2.729,-3.666 l 4.732,-5.589 -2.549,-0.365 z"
           id="path98"
           style="fill:#ececec;fill-opacity:1;fill-rule:nonzero;stroke:none" /></g><g
         transform="translate(300.7559,177.3213)"
         id="g100"><path
           d="m 0,0 0,-5.2 c -1.3,-0.443 -3.275,-0.859 -4.966,-0.859 -4.524,0 -7.566,2.445 -7.566,6.579 0,4.654 3.562,6.916 7.358,6.916 1.612,0 3.458,-0.209 4.992,-0.832 L -0.701,4.42 c -1.223,0.572 -3.017,0.962 -4.369,0.962 -2.626,0 -4.94,-1.353 -4.94,-4.941 0,-2.99 2.158,-4.393 5.278,-4.393 0.858,0 1.82,0.208 2.34,0.363 L -2.392,0 0,0 z"
           id="path102"
           style="fill:#ececec;fill-opacity:1;fill-rule:nonzero;stroke:none" /></g><g
         transform="translate(307.5684,185.5635)"
         id="g104"><path
           d="m 0,0 -1.586,0 1.924,4.03 2.6,0 L 0,0 z m -1.768,-1.066 2.392,0 0,-12.948 -2.392,0 0,12.948 z"
           id="path106"
           style="fill:#ececec;fill-opacity:1;fill-rule:nonzero;stroke:none" /></g><g
         transform="translate(318.2539,181.2207)"
         id="g108"><path
           d="m 0,0 c -0.105,0.234 -0.182,0.599 -0.208,0.962 l -0.183,0 C -0.416,0.599 -0.494,0.261 -0.598,0 l -1.638,-4.16 3.874,0 L 0,0 z m 3.848,-9.75 -1.508,3.77 -5.279,0 -1.429,-3.692 -2.315,0 5.227,12.948 2.47,0 5.2,-12.87 -2.366,-0.156 z"
           id="path110"
           style="fill:#ececec;fill-opacity:1;fill-rule:nonzero;stroke:none" /></g><path
         d="m 334.478,184.497 2.392,0 0,-12.948 -2.392,0 0,12.948 z"
         id="path112"
         style="fill:#ececec;fill-opacity:1;fill-rule:nonzero;stroke:none" /><g
         transform="translate(352.3652,171.2891)"
         id="g114"><path
           d="m 0,0 -7.202,9.36 c -0.26,0.338 -0.493,0.78 -0.624,1.17 l -0.155,0 C -7.956,10.192 -7.93,9.646 -7.93,9.412 l 0,-9.152 -2.132,0 0,12.948 2.574,0 6.604,-8.606 c 0.261,-0.338 0.468,-0.728 0.599,-1.197 l 0.155,0 C -0.155,3.77 -0.182,4.29 -0.182,4.628 l 0,8.58 2.132,0 0,-12.923 L 0,0 z"
           id="path116"
           style="fill:#ececec;fill-opacity:1;fill-rule:nonzero;stroke:none" /></g><g
         transform="translate(370.124,182.417)"
         id="g118"><path
           d="m 0,0 -4.914,0 0,-10.868 -2.393,0 0,10.868 -4.914,0 -0.155,2.08 12.532,0 L 0,0 z"
           id="path120"
           style="fill:#ececec;fill-opacity:1;fill-rule:nonzero;stroke:none" /></g><g
         transform="translate(382.7852,171.5488)"
         id="g122"><path
           d="m 0,0 -9.074,0 0,12.948 8.814,0 -0.131,-2.08 -6.318,0 0,-3.302 5.824,0 0,-2.002 -5.824,0 0,-3.484 6.787,0 L 0,0 z"
           id="path124"
           style="fill:#ececec;fill-opacity:1;fill-rule:nonzero;stroke:none" /></g><g
         transform="translate(395.9668,171.5488)"
         id="g126"><path
           d="m 0,0 -8.658,0 0,12.948 2.391,0 0,-10.843 6.37,0 L 0,0 z"
           id="path128"
           style="fill:#ececec;fill-opacity:1;fill-rule:nonzero;stroke:none" /></g><path
         d="m 399.763,184.497 2.392,0 0,-12.948 -2.392,0 0,12.948 z"
         id="path130"
         style="fill:#ececec;fill-opacity:1;fill-rule:nonzero;stroke:none" /><g
         transform="translate(418.7676,177.3213)"
         id="g132"><path
           d="m 0,0 0,-5.2 c -1.3,-0.443 -3.275,-0.859 -4.966,-0.859 -4.524,0 -7.566,2.445 -7.566,6.579 0,4.654 3.562,6.916 7.358,6.916 1.613,0 3.458,-0.209 4.992,-0.832 L -0.701,4.42 c -1.223,0.572 -3.017,0.962 -4.369,0.962 -2.626,0 -4.94,-1.353 -4.94,-4.941 0,-2.99 2.158,-4.393 5.279,-4.393 0.857,0 1.819,0.208 2.339,0.363 L -2.392,0 0,0 z"
           id="path134"
           style="fill:#ececec;fill-opacity:1;fill-rule:nonzero;stroke:none" /></g><g
         transform="translate(432.8857,171.5488)"
         id="g136"><path
           d="m 0,0 -9.074,0 0,12.948 8.813,0 -0.13,-2.08 -6.317,0 0,-3.302 5.824,0 0,-2.002 -5.824,0 0,-3.484 6.786,0 L 0,0 z"
           id="path138"
           style="fill:#ececec;fill-opacity:1;fill-rule:nonzero;stroke:none" /></g><g
         transform="translate(447.4727,171.2891)"
         id="g140"><path
           d="m 0,0 -7.203,9.36 c -0.26,0.338 -0.494,0.78 -0.624,1.17 l -0.155,0 c 0.025,-0.338 0.051,-0.884 0.051,-1.118 l 0,-9.152 -2.132,0 0,12.948 2.575,0 6.603,-8.606 c 0.26,-0.338 0.469,-0.728 0.599,-1.197 l 0.155,0 C -0.156,3.77 -0.183,4.29 -0.183,4.628 l 0,8.58 2.132,0 0,-12.923 L 0,0 z"
           id="path142"
           style="fill:#ececec;fill-opacity:1;fill-rule:nonzero;stroke:none" /></g><g
         transform="translate(465.2295,182.417)"
         id="g144"><path
           d="m 0,0 -4.914,0 0,-10.868 -2.393,0 0,10.868 -4.914,0 -0.155,2.08 12.532,0 L 0,0 z"
           id="path146"
           style="fill:#ececec;fill-opacity:1;fill-rule:nonzero;stroke:none" /></g><g
         transform="translate(477.8906,171.5488)"
         id="g148"><path
           d="m 0,0 -9.074,0 0,12.948 8.814,0 -0.131,-2.08 -6.318,0 0,-3.302 5.824,0 0,-2.002 -5.824,0 0,-3.484 6.787,0 L 0,0 z"
           id="path150"
           style="fill:#ececec;fill-opacity:1;fill-rule:nonzero;stroke:none" /></g></g></g></svg>