<?xml version="1.0" standalone="no"?>
<!DOCTYPE svg PUBLIC "-//W3C//DTD SVG 20010904//EN"
 "http://www.w3.org/TR/2001/REC-SVG-20010904/DTD/svg10.dtd">
<svg version="1.0" xmlns="http://www.w3.org/2000/svg"
 width="339.000000pt" height="93.000000pt" viewBox="0 0 339.000000 93.000000"
 preserveAspectRatio="xMidYMid meet">
<metadata>
Created by potrace 1.11, written by Peter Selinger 2001-2013
</metadata>
<g transform="translate(0.000000,93.000000) scale(0.100000,-0.100000)"
fill="#000000" stroke="none">
<path d="M1113 843 c-10 -3 -13 -73 -13 -299 l0 -294 179 0 c193 0 191 -1 191
55 0 46 -22 55 -141 55 l-109 0 0 233 c0 168 -3 236 -12 245 -12 12 -71 15
-95 5z"/>
<path d="M1510 841 c-73 -24 -120 -63 -143 -121 -18 -42 -29 -198 -19 -260 l7
-45 53 -3 c51 -3 52 -2 58 27 l7 31 98 0 98 0 3 -102 3 -103 55 0 55 0 3 193
c3 203 -3 247 -40 302 -42 61 -168 104 -238 81z m121 -129 c26 -23 31 -36 36
-90 l6 -62 -102 0 -101 0 0 53 c0 61 16 97 50 114 40 20 77 15 111 -15z"/>
<path d="M1923 843 c-10 -3 -13 -73 -13 -299 l0 -295 58 3 57 3 3 113 3 112
39 0 40 0 57 -115 58 -115 62 0 c36 0 63 4 63 10 0 6 -26 63 -59 128 l-58 117
30 20 c69 46 93 121 63 200 -23 59 -72 100 -136 114 -51 11 -243 14 -267 4z
m256 -118 c46 -23 54 -66 20 -109 -19 -24 -26 -26 -95 -26 l-74 0 0 75 0 75
60 0 c34 0 74 -7 89 -15z"/>
<path d="M115 821 c-48 -22 -69 -44 -90 -94 -21 -51 -19 -95 8 -147 27 -54 66
-75 167 -91 41 -6 83 -18 93 -27 24 -21 22 -74 -4 -98 -28 -25 -129 -26 -178
-1 -46 23 -53 22 -86 -13 -35 -36 -29 -53 27 -82 76 -40 213 -42 285 -5 133
70 122 273 -17 315 -19 6 -57 14 -85 18 -80 11 -105 28 -105 75 0 58 74 82
165 54 l56 -18 32 32 32 32 -29 23 c-59 49 -195 62 -271 27z"/>
<path d="M2417 833 c-4 -3 -7 -21 -7 -39 0 -65 -2 -64 151 -64 l139 0 2 -242
3 -243 55 0 55 0 3 243 2 242 39 0 c41 0 51 11 51 55 0 57 8 55 -249 55 -131
0 -241 -3 -244 -7z"/>
<path d="M2940 830 c0 -5 37 -83 83 -173 l82 -162 5 -125 5 -125 55 0 55 0 5
125 5 125 78 152 c42 83 77 161 77 173 0 19 -5 21 -57 18 l-56 -3 -51 -112
c-28 -62 -53 -113 -56 -113 -3 0 -28 51 -56 113 l-52 112 -61 3 c-38 2 -61 -1
-61 -8z"/>
<path d="M986 679 c25 -49 29 -127 10 -194 -23 -77 -98 -154 -175 -180 -53
-17 -151 -18 -196 0 -11 4 -4 -4 15 -17 106 -75 254 -63 344 28 88 87 99 207
31 328 -37 66 -59 93 -29 35z"/>
<path d="M2424 657 c-2 -7 -3 -102 -2 -212 l3 -200 49 -3 c32 -2 52 1 57 10
10 15 12 378 3 402 -8 20 -102 23 -110 3z"/>
</g>
</svg>
